<svg xmlns="http://www.w3.org/2000/svg" xml:space="preserve" width="492.735" height="57.942">
  <path d="m392.062 27.103.001-.001 1.559-.919 3.05-1.8a20.532 20.532 0 0 0-6.391-10.794h-.001l-3.04 1.792-1.566.924c3.465 2.487 5.867 6.355 6.389 10.798m5.126 1.938-3.49 2.06-1.877 1.106v.001c-1.515 6.99-7.74 12.244-15.175 12.244-1.552 0-3.05-.235-4.465-.661h-.001l-1.88 1.11-3.486 2.055v.001a20.418 20.418 0 0 0 9.833 2.512c11.289 0 20.475-9.153 20.542-20.428m-34.188 15.202 3.038-1.792 1.567-.924v-.001c-3.462-2.49-5.863-6.358-6.38-10.801h-.002l-1.56.92-3.049 1.8a20.535 20.535 0 0 0 6.386 10.798m-6.898-15.46 3.49-2.057 1.88-1.109.002-.001c1.52-6.981 7.74-12.228 15.17-12.228 1.546 0 3.036.235 4.447.657l.003-.001 1.883-1.11 3.488-2.058v-.001a20.418 20.418 0 0 0-9.82-2.504c-11.286 0-20.469 9.145-20.543 20.413m45.075-7.058 2.966-1.75a28.931 28.931 0 0 0-6.392-10.796l-2.952 1.742a25.594 25.594 0 0 1 6.376 10.805zm.893 4.435-.003.001c.098.907.155 1.826.155 2.758 0 14.105-11.476 25.58-25.578 25.58-5.47 0-10.532-1.74-14.695-4.675a25.738 25.738 0 0 1-3.468-2.917A25.569 25.569 0 0 1 352.11 36.1a25.41 25.41 0 0 1-1.045-7.181c0-14.104 11.475-25.58 25.58-25.58 5.465 0 10.522 1.737 14.683 4.668l.003-.001 3.128-1.846a28.934 28.934 0 0 0-6.535-3.868A28.773 28.773 0 0 0 376.646.001c-14.882 0-27.033 11.344-28.606 25.816-.112 1.033-.313 2.04-.313 3.104 0 11.932 7.268 22.193 17.607 26.606a28.747 28.747 0 0 0 11.312 2.312c14.9 0 27.057-11.366 28.61-25.858.109-1.02.309-2.012.309-3.06 0-1.567-.128-3.103-.37-4.603zm-25.427 9.035a6.276 6.276 0 1 1 0-12.553 6.276 6.276 0 0 1 0 12.553m4.116-15.994a10.506 10.506 0 0 0-4.116-.837c-5.43 0-9.865 4.141-10.44 9.423-.04.377-.113.744-.113 1.133 0 4.353 2.652 8.099 6.425 9.71 1.27.54 2.664.843 4.128.843 5.439 0 9.875-4.148 10.441-9.437.04-.372.114-.735.114-1.116 0-4.361-2.658-8.11-6.439-9.719m104.762 27.85c0 2.001-1.68 3.63-3.682 3.63a3.632 3.632 0 0 1-3.153-1.838l-.07-.132-16.195-29.816h-8.253L472.312 52.3l.213.396.003.001a10.883 10.883 0 0 0 10.69 5.155c5.364-.676 9.514-5.252 9.514-10.8V18.896h-7.21zM455.01 5.247v-.001a10.877 10.877 0 0 0-9.098-5.237c-.072-.003-.144-.008-.216-.008-.096 0-.19.005-.285.008-5.883.15-10.606 4.962-10.606 10.882v3.97h7.21v-3.97c0-2.003 1.678-3.63 3.68-3.63a3.63 3.63 0 0 1 3.153 1.838l.072.132 3.057 5.63h8.255zm-20.205 52.605v.09h7.21V18.897h-7.21zM173.92.008v7.253h25.341v7.599h7.26V7.26h25.34V0h-57.94Zm25.34 57.84h7.26V18.896h-7.26zm-97.943-7.168c-3.937-.033-7.13-3.306-7.13-7.252 0-1.982.807-3.78 2.109-5.082s3.869-4.458 3.869-9.375v-.003c0-4.917-2.567-8.071-3.87-9.374a7.352 7.352 0 0 1-.603-.697h-8.099a13.906 13.906 0 0 0 3.59 5.855c1.247 1.207 1.795 2.722 1.777 4.218.018 1.497-.53 3.012-1.778 4.218-2.666 2.578-4.254 6.239-4.254 10.24 0 7.45 5.638 13.634 12.88 14.424.516.056 1.04.088 1.57.088h43.49v-7.26h-43.551M144.868 0h-43.49c-.093 0-.188.006-.281.007-7.85.154-14.17 6.618-14.17 14.504 0 .118.007.232.01.35h7.268c-.006-.118-.018-.232-.018-.35 0-3.944 3.192-7.217 7.13-7.25h43.551V.007Zm-94.2 14.86h7.208V.035h-7.209ZM20.71 6.172l-.502-.925v-.001A10.882 10.882 0 0 0 11.11.008C11.037.007 10.966 0 10.893 0c-.096 0-.19.006-.284.008C4.726.158.002 4.972.002 10.891v3.97h7.21v-3.97s.05 2.001.05 0 1.63-3.63 3.63-3.63c1.35 0 2.528.742 3.154 1.838l.072.132 3.053 5.63h8.255zM50.667 36.75V47s-.05-2-.05 0a3.635 3.635 0 0 1-3.631 3.632 3.628 3.628 0 0 1-3.299-2.124l-4.78-8.808-11.292-20.803H19.36l17.905 33.01.298.547.028.053h.001a10.888 10.888 0 0 0 8.517 5.346c.29.022.582.038.878.038.297 0 .59-.016.882-.038 5.602-.45 10.008-5.135 10.008-10.852V18.897h-7.21ZM.003 57.852v.004h7.209V18.897H.002Zm303.228-19.59a3.596 3.596 0 0 1-.874-2.351 3.619 3.619 0 0 1 2.968-3.555l.004-.004a16.241 16.241 0 0 0 8.328-4.13 16.262 16.262 0 0 0 4.99-9.326h-7.442c-.966 3.203-3.659 5.664-6.996 6.283-.314.056-.948.168-1.762.447-4.276 1.464-7.35 5.514-7.35 10.285 0 2.457.816 4.724 2.19 6.545l12.387 15.396.072.09h9.17l-.072-.09zm-42.318 19.59v.09h7.26V18.897h-7.26zm50.556-42.991h7.318c-.72-8.234-7.56-14.708-15.945-14.852-.095-.003-.19-.008-.284-.008h-27.23c-.095 0-.188.005-.284.008-7.83.152-14.13 6.54-14.13 14.408v.444h7.259v-.444a7.163 7.163 0 0 1 7.156-7.156h27.229c4.492 0 8.219 3.298 8.91 7.6M485.524 0v14.86h7.21V0Z" />
</svg>